<?xml version="1.0" encoding="UTF-8"?><svg xmlns="http://www.w3.org/2000/svg" viewBox="0 0 99.16 90.49"><defs><style>.d{fill:#fff;}.e{fill:#e2982b;}</style></defs><g id="a"/><g id="b"><g id="c"><g><path d="M99.15,62.1c.27,3.02-4.36,15.58-14.6,19.77-6.19,3.7-13.31,5.07-20.34,6.85-15.2,3.86-29.68,.74-44.02-3.09-6.54-1.74-12.95-5.23-17.61-10.75-.81-.96-1.53-2.27-1.66-3.49C.45,66.8-.13,62.16,.03,57.57c.19-5.46-.03-42.51,32.42-55.34C43.36-1.12,50.17-.17,61.01,1.69c21.1,4.82,27.57,20.24,30.2,23.95,3.07,4.34,7.62,32.89,7.94,36.47Z"/><path class="d" d="M7.56,68.72c-.05-1.64-.13-3.28-.14-4.91-.05-4.6-.52-19.38,6.59-36.6,1.59-5.66,6.09-10.04,10.65-14.03,5.49-4.79,11.84-7.6,18.97-7.92,4.23-.19,8.53,.94,12.78,1.64,1.61,.27,3.14,1.01,4.71,1.52,10.73,3.47,18.93,9.86,24.31,19.99,6.43,12.11,8.06,24.89,5.53,38.1-.5,2.63-3.63,5.22-6.17,6.9-5.92,3.89-12.51,6.16-19.38,8.28-7.88,2.43-15.56,2.14-23.27,1.71-8.47-.47-17.1-1.54-24.74-5.66-4.02-2.17-10.26-8.73-9.82-9ZM52.66,23.14c-.18,2.08,1.75,4.93,3.53,4.55,1.58-.34,3.35-1.52,4.25-2.87,.82-1.23-2.42-4.5-4.32-4.65-2.14-.16-3.27,.86-3.46,2.96Zm10.83,15.94c1.16,1.51,3.41,1.68,4.74,.32,.46-.47,.81-.92,.99-1.42,.68-1.85-1.63-5.07-3.3-4.62-1.48,.4-3.61,2.04-3.65,3.18-.02,.78,.49,1.58,1.21,2.53Zm-17.53,1.76c-1.41,.76-1.82,2.6-.85,3.87,.77,1,1.44,1.79,2.26,2.37,.34,.24,2.82-1.4,3.13-2.51,.58-2.08-.62-3.98-2.92-4.22-.49-.05-1,.15-1.63,.49Z"/><path d="M52.66,23.14c.19-2.11,1.32-3.13,3.46-2.96,1.9,.15,5.14,3.42,4.32,4.65-.89,1.34-2.66,2.52-4.25,2.87-1.78,.38-3.7-2.47-3.53-4.55Z"/><path d="M69.06,38.35c-1.26,2.31-4.6,2.22-6.07,.04-.45-.66-.73-1.25-.71-1.84,.04-1.15,2.17-2.79,3.65-3.18,1.67-.45,3.97,2.77,3.3,4.62-.05,.12-.1,.24-.16,.36Z"/></g><path class="e" d="M7.56,68.72c-.05-1.64-.13-3.28-.14-4.91-.05-4.6-.52-19.38,6.59-36.6,1.59-5.66,6.09-10.04,10.65-14.03,5.49-4.79,11.84-7.6,18.97-7.92,4.23-.19,8.53,.94,12.78,1.64,1.61,.27,3.14,1.01,4.71,1.52,10.73,3.47,18.93,9.86,24.31,19.99,6.43,12.11,8.06,24.89,5.53,38.1-.5,2.63-3.63,5.22-6.17,6.9-5.92,3.89-12.51,6.16-19.38,8.28-7.88,2.43-15.56,2.14-23.27,1.71-8.47-.47-17.1-1.54-24.74-5.66-4.02-2.17-10.26-8.73-9.82-9ZM52.66,23.14c-.18,2.08,1.75,4.93,3.53,4.55,1.58-.34,3.35-1.52,4.25-2.87,.82-1.23-2.42-4.5-4.32-4.65-2.14-.16-3.27,.86-3.46,2.96Zm10.83,15.94c1.16,1.51,3.41,1.68,4.74,.32,.46-.47,.81-.92,.99-1.42,.68-1.85-1.63-5.07-3.3-4.62-1.48,.4-3.61,2.04-3.65,3.18-.02,.78,.49,1.58,1.21,2.53Zm-17.53,1.76c-1.41,.76-1.82,2.6-.85,3.87,.77,1,1.44,1.79,2.26,2.37,.34,.24,2.82-1.4,3.13-2.51,.58-2.08-.62-3.98-2.92-4.22-.49-.05-1,.15-1.63,.49Z"/></g></g></svg>