<?xml version="1.0" encoding="UTF-8"?><svg xmlns="http://www.w3.org/2000/svg" viewBox="0 0 121.16 112.41"><defs><style>.d{fill:#fff9dc;}</style></defs><g id="a"/><g id="b"><g id="c"><path d="M104.68,20.22c-3.71-.55-7.58-.09-11.73-.09,.2-1.02,.27-2.41,.76-3.63,1.6-3.97-.36-7.23-2.57-9.91C86.57,1.04,79.7-.34,73.2,.07c-6.4,.4-11.34,4.6-14.1,10.72-.92,2.03-.84,3.35-1.37,5.49-.22,.89,.87,2.81,1.03,5.93,.76,2.38-.4,5-1.33,7.29-.81,2.02-1.66,4.02-2.6,5.98-2.23,4.68-5.21,8.8-9.41,11.94-3.68,2.75-7.68,5.18-10.92,8.38-2.59,2.56-5.11,2.36-8.19,2.04-4.52-.47-9.09-.7-13.64-.66C5.87,57.24-.35,65.65,.02,70.97c.71,10.29,9.01,21.29,21.19,19.87,2.66-.31,3.29,.69,4.11,3.1,1.43,4.21,3.19,8.54,5.87,12.01,2.06,2.66,5.67,4.19,8.74,5.97,.93,.54,2.44,.62,3.51,.3,2.16-.63,4.4-1.39,6.24-2.64,1.78-1.2,3.88-2.84,4.47-4.72,1.16-3.71,1.77-7.7,1.91-11.59,.26-7.43,2.62-13.52,8.79-18.1,4.74-3.52,9.05-7.6,13.7-11.24,6.63-5.17,13.83-9.26,22.34-10.43,6.07-.83,11.55-3.21,16.2-6.99,2.24-1.82,4.08-4.43,4.08-7.96,0-9.42-7.89-17.06-16.49-18.34Zm4.24,23.27c-4.53,1.76-9.7,1.9-14.16,3.77-6.01,2.52-11.74,5.8-17.35,9.16-4.56,2.73-8.93,5.87-13.08,9.2-3.25,2.61-5.79,6.14-9.12,8.63-5.41,4.05-4.25,10.36-6.04,15.62-.89,2.6-1.2,5.52-1.16,8.28,.06,3.62-2.18,5.37-4.86,6.38-2.99,1.13-5.15-1.39-6.67-3.32-3.3-4.17-4.75-8.89-3.11-14.43,.44-1.49-.81-4.11-2.11-5.3-1.34-1.23-3.46-1.09-5.31,.54-3.79,3.34-12.54,2.09-15.36-2.05-1.15-1.68-2.26-3.48-2.9-5.39-2.64-7.89,4-12.5,11.95-12.33,2.87,.76,6.96,.11,10.7,1.22,5.18,1.54,5.6,2.68,9.36-1.28,2.95-3.11,6.73-5.44,9.75-8.5,3.64-3.69,7.26-7.53,10.15-11.8,2.44-3.6,4.11-7.82,5.55-11.96,.8-2.31,.76-5.05,.52-7.54-.37-3.77-1.92-6.65,.44-10.01,.11-.16,1.12-1.2,1.23-1.36,1.22-1.81,11.8-3.96,13.74-2.84,.8,.46,1.94,.56,2.49,1.2,1.13,1.33,2.84,2.98,2.75,4.39-.26,3.97-.87,8.01-3.93,11.15-1.83,1.88-2.6,4.26-1.55,6.86,1.05,2.61,3.11,3.22,5.35,1.53,3.43-2.59,6.51-5.61,11.24-5.95,5.85-.41,11.32-.09,14.68,5.6,3.05,5.18,2.33,8.41-3.16,10.55Z"/><path d="M104.68,20.22c-3.71-.55-7.58-.09-11.73-.09,.2-1.02,.27-2.41,.76-3.63,1.6-3.97-.36-7.23-2.57-9.91C86.57,1.04,79.7-.34,73.2,.07c-6.4,.4-11.34,4.6-14.1,10.72-.92,2.03-.84,3.35-1.37,5.49-.22,.89,.87,2.81,1.03,5.93,.76,2.38-.4,5-1.33,7.29-.81,2.02-1.66,4.02-2.6,5.98-2.23,4.68-5.21,8.8-9.41,11.94-3.68,2.75-7.68,5.18-10.92,8.38-2.59,2.56-5.11,2.36-8.19,2.04-4.52-.47-9.09-.7-13.64-.66C5.87,57.24-.35,65.65,.02,70.97c.71,10.29,9.01,21.29,21.19,19.87,2.66-.31,3.29,.69,4.11,3.1,1.43,4.21,3.19,8.54,5.87,12.01,2.06,2.66,5.67,4.19,8.74,5.97,.93,.54,2.44,.62,3.51,.3,2.16-.63,4.4-1.39,6.24-2.64,1.78-1.2,3.88-2.84,4.47-4.72,1.16-3.71,1.77-7.7,1.91-11.59,.26-7.43,2.62-13.52,8.79-18.1,4.74-3.52,9.05-7.6,13.7-11.24,6.63-5.17,13.83-9.26,22.34-10.43,6.07-.83,11.55-3.21,16.2-6.99,2.24-1.82,4.08-4.43,4.08-7.96,0-9.42-7.89-17.06-16.49-18.34Zm4.24,23.27c-4.53,1.76-9.7,1.9-14.16,3.77-6.01,2.52-11.74,5.8-17.35,9.16-4.56,2.73-8.93,5.87-13.08,9.2-3.25,2.61-5.79,6.14-9.12,8.63-5.41,4.05-4.25,10.36-6.04,15.62-.89,2.6-1.2,5.52-1.16,8.28,.06,3.62-2.18,5.37-4.86,6.38-2.99,1.13-5.15-1.39-6.67-3.32-3.3-4.17-4.75-8.89-3.11-14.43,.44-1.49-.81-4.11-2.11-5.3-1.34-1.23-3.46-1.09-5.31,.54-3.79,3.34-12.54,2.09-15.36-2.05-1.15-1.68-2.26-3.48-2.9-5.39-2.64-7.89,4-12.5,11.95-12.33,2.87,.76,6.96,.11,10.7,1.22,5.18,1.54,5.6,2.68,9.36-1.28,2.95-3.11,6.73-5.44,9.75-8.5,3.64-3.69,7.26-7.53,10.15-11.8,2.44-3.6,4.11-7.82,5.55-11.96,.8-2.31,.76-5.05,.52-7.54-.37-3.77-1.92-6.65,.44-10.01,.11-.16,1.12-1.2,1.23-1.36,1.22-1.81,11.8-3.96,13.74-2.84,.8,.46,1.94,.56,2.49,1.2,1.13,1.33,2.84,2.98,2.75,4.39-.26,3.97-.87,8.01-3.93,11.15-1.83,1.88-2.6,4.26-1.55,6.86,1.05,2.61,3.11,3.22,5.35,1.53,3.43-2.59,6.51-5.61,11.24-5.95,5.85-.41,11.32-.09,14.68,5.6,3.05,5.18,2.33,8.41-3.16,10.55Z"/><path class="d" d="M109.02,43.38c-4.53,1.76-9.7,1.9-14.16,3.77-6.01,2.52-11.74,5.8-17.35,9.16-4.56,2.73-8.93,5.87-13.08,9.2-3.25,2.61-5.79,6.14-9.12,8.63-5.41,4.05-4.25,10.36-6.04,15.62-.89,2.6-1.2,5.52-1.16,8.28,.06,3.62-2.18,5.37-4.86,6.38-2.99,1.13-5.15-1.39-6.67-3.32-3.3-4.17-4.75-8.89-3.11-14.43,.44-1.49-.81-4.11-2.11-5.3-1.34-1.23-3.46-1.09-5.31,.54-3.79,3.34-12.54,2.09-15.36-2.05-1.15-1.68-2.26-3.48-2.9-5.39-2.64-7.89,4-12.5,11.95-12.33,2.87,.76,6.96,.11,10.7,1.22,5.18,1.54,5.6,2.68,9.36-1.28,2.95-3.11,6.73-5.44,9.75-8.5,3.64-3.69,7.26-7.53,10.15-11.8,2.44-3.6,4.11-7.82,5.55-11.96,.8-2.31,.76-5.05,.52-7.54-.37-3.77-1.92-6.65,.44-10.01,.11-.16,1.12-1.2,1.23-1.36,1.22-1.81,11.8-3.96,13.74-2.84,.8,.46,1.94,.56,2.49,1.2,1.13,1.33,2.84,2.98,2.75,4.39-.26,3.97-.87,8.01-3.93,11.15-1.83,1.88-2.6,4.26-1.55,6.86,1.05,2.61,3.11,3.22,5.35,1.53,3.43-2.59,6.51-5.61,11.24-5.95,5.85-.41,11.32-.09,14.68,5.6,3.05,5.18,2.33,8.41-3.16,10.55Z"/></g></g></svg>